<svg viewBox="0 0 512 512" xmlns="http://www.w3.org/2000/svg" xmlns:xlink="http://www.w3.org/1999/xlink"><linearGradient id="a" gradientTransform="matrix(1 0 0 -1 0 -18006)" gradientUnits="userSpaceOnUse" x1="0" x2="512" y1="-18262" y2="-18262"><stop offset="0" stop-color="#00f1ff"/><stop offset=".231" stop-color="#00d8ff"/><stop offset=".5138" stop-color="#00c0ff"/><stop offset=".7773" stop-color="#00b2ff"/><stop offset="1" stop-color="#00adff"/></linearGradient><path d="m512 256c0 141.386719-114.613281 256-256 256s-256-114.613281-256-256 114.613281-256 256-256 256 114.613281 256 256zm0 0" fill="url(#a)"/><path d="m277.230469 255.980469 141.894531-141.890625c5.855469-5.859375 5.855469-15.355469 0-21.214844-5.859375-5.855469-15.355469-5.855469-21.214844 0l-141.890625 141.894531-141.894531-141.894531c-5.859375-5.855469-15.355469-5.855469-21.214844 0-5.855468 5.859375-5.855468 15.355469 0 21.214844l141.894532 141.894531-141.894532 141.890625c-5.855468 5.859375-5.855468 15.355469 0 21.214844 2.929688 2.929687 6.769532 4.394531 10.605469 4.394531 3.839844 0 7.679687-1.464844 10.605469-4.394531l141.894531-141.894532 141.894531 141.894532c2.929688 2.929687 6.769532 4.394531 10.605469 4.394531 3.839844 0 7.679687-1.464844 10.605469-4.394531 5.859375-5.859375 5.859375-15.355469 0-21.214844zm0 0" fill="#fff"/></svg>